<svg width="39" height="39" viewBox="0 0 39 39" fill="none" xmlns="http://www.w3.org/2000/svg">
<circle cx="19.5" cy="19.5" r="19.5" fill="black"/>
<path d="M24.584 16.576C24.376 15.248 23.928 14.248 23.24 13.576C22.568 12.904 21.672 12.56 20.552 12.544C19.72 12.544 18.992 12.736 18.368 13.12C17.744 13.504 17.224 14.016 16.808 14.656C16.408 15.296 16.104 16.024 15.896 16.84C15.704 17.656 15.608 18.496 15.608 19.36C15.608 20.736 15.8 21.96 16.184 23.032C16.584 24.088 17.16 24.92 17.912 25.528C18.664 26.136 19.576 26.44 20.648 26.44C21.656 26.44 22.656 26.184 23.648 25.672C24.64 25.144 25.472 24.416 26.144 23.488L27.296 24.544C26.512 25.616 25.688 26.432 24.824 26.992C23.96 27.536 23.112 27.904 22.28 28.096C21.464 28.288 20.728 28.384 20.072 28.384C18.84 28.384 17.72 28.168 16.712 27.736C15.704 27.288 14.832 26.68 14.096 25.912C13.376 25.128 12.816 24.224 12.416 23.2C12.032 22.16 11.84 21.04 11.84 19.84C11.84 18.752 12.016 17.672 12.368 16.6C12.72 15.528 13.24 14.56 13.928 13.696C14.632 12.816 15.512 12.12 16.568 11.608C17.624 11.08 18.848 10.816 20.24 10.816C20.864 10.816 21.544 10.92 22.28 11.128C23.032 11.32 23.736 11.608 24.392 11.992L24.296 10.984H26.144V16.576H24.584Z" fill="white"/>
</svg>
